<?xml version="1.0" encoding="UTF-8"?>
<svg xmlns="http://www.w3.org/2000/svg" viewBox="0 0 1080 1080" fill="none" shape-rendering="geometricPrecision" style="width:100%;height:100%">
   <defs>
      <filter id="filter" x="-20%" y="-20%" width="140%" height="140%" filterUnits="objectBoundingBox" primitiveUnits="userSpaceOnUse" color-interpolation-filters="linearRGB">
         <feMorphology operator="dilate" radius="20 20" in="SourceAlpha" result="morphology" />
         <feFlood flood-color="#ffffff" flood-opacity="1" result="flood" />
         <feComposite in="flood" in2="morphology" operator="in" result="composite" />
         <feMerge result="merge">
            <feMergeNode in="composite" result="mergeNode" />
            <feMergeNode in="SourceGraphic" result="mergeNode1" />
         </feMerge>
      </filter>
   </defs>
   <g id="notion-avatar" filter="url(#filter)">
      <g id="notion-avatar-face" fill="#ffffff">
         <title>Face/ 6</title>
         <g id="Face/-6" stroke="none" stroke-width="1" fill-rule="evenodd" stroke-linecap="round" stroke-linejoin="round">
            <path d="M532,379 C664.54834,379 772,486.45166 772,619 C772,751.54834 764.54834,899 532,899 C402.610491,899 332.317998,816.086314 305.249034,718.717925 C264.225797,715.291578 232,680.909158 232,639 C232,599.134956 261.158843,566.080325 299.312086,560.00055 C325.599297,455.979213 419.809919,379 532,379 Z M295.858895,624.545187 L304.141105,655.454813" id="Path" stroke="#000000" stroke-width="24" />
         </g>
      </g>
      <g id="notion-avatar-nose">
         <g id="Nose/ 13">
            <path id="Path" fill-rule="evenodd" clip-rule="evenodd" d="M644 560C644 560 665.892 613.522 673 623C676 627 693.906 641.256 692.774 653.58C690.065 683.076 644 684.359 644 684.359C644 684.359 700 689.489 700 653.58C700 637.222 687 632 674 620C666.959 613.5 644 560 644 560Z" fill="black" stroke="black" stroke-width="6" stroke-linecap="round" stroke-linejoin="round" />
         </g>
      </g>
      <g id="notion-avatar-mouth">
         <title>Mouth/ 1</title>
         <g id="Mouth/-1" stroke="none" stroke-width="1" fill="none" fill-rule="evenodd" stroke-linecap="round" stroke-linejoin="round">
            <path d="M549,759 C575.12979,773.666667 603.12979,781 633,781 C662.87021,781 682.87021,773.666667 693,759" id="Path" stroke="#000000" stroke-width="16" />
         </g>
      </g>
      <g id="notion-avatar-eyes">
         <title>Eyes/ 1</title>
         <g id="Eyes/-1" stroke="none" stroke-width="1" fill="none" fill-rule="evenodd">
            <g id="Group" transform="translate(546.000000, 509.000000)">
               <path d="M24,7 C37.254834,7 48,17.745166 48,31 C48,44.254834 37.254834,55 24,55 C10.745166,55 0,44.254834 0,31 C0,17.745166 10.745166,7 24,7 Z M162,7 C175.254834,7 186,17.745166 186,31 C186,44.254834 175.254834,55 162,55 C148.745166,55 138,44.254834 138,31 C138,17.745166 148.745166,7 162,7 Z" id="Combined-Shape" fill="#000000" />
               <g id="Path" stroke="#000000" stroke-linecap="round" stroke-linejoin="round" stroke-width="4">
                  <path d="M0,7 C8,2.33333333 16,0 24,0 C32,0 40,2.33333333 48,7" />
                  <path d="M138,7 C146,2.33333333 154,0 162,0 C170,0 178,2.33333333 186,7" />
               </g>
            </g>
         </g>
      </g>
      <g id="notion-avatar-eyebrows">
         <g id="Eyebrows/ 12">
            <g id="Group">
               <path id="Path" fill-rule="evenodd" clip-rule="evenodd" d="M681 505.316C681 505.316 698.641 492.863 706.392 490.578C714.144 488.294 738 489.316 738 489.316L755 494.913C755 494.913 730.25 494.897 716.549 497.08C702.848 499.263 681 505.316 681 505.316Z" fill="black" stroke="black" stroke-width="8" stroke-linecap="round" stroke-linejoin="round" />
               <path id="Path_2" fill-rule="evenodd" clip-rule="evenodd" d="M597 505.316C597 505.316 579.359 492.863 571.608 490.578C563.856 488.294 540 489.316 540 489.316L523 494.913C523 494.913 547.75 494.897 561.451 497.08C575.152 499.263 597 505.316 597 505.316Z" fill="black" stroke="black" stroke-width="8" stroke-linecap="round" stroke-linejoin="round" />
            </g>
         </g>
      </g>
      <g id="notion-avatar-glasses">
         <title>Glasses/ 1</title>
         <g id="Glasses/-1" stroke="none" stroke-width="1" fill="none" fill-rule="evenodd" stroke-linecap="round" stroke-linejoin="round">
            <g id="Group" transform="translate(293.311103, 479.000000)" stroke="#000000" stroke-width="16">
               <circle id="Oval" cx="272.688897" cy="60" r="60" />
               <circle id="Oval" cx="416.688897" cy="60" r="60" />
               <path d="M368.688897,13 C360.688897,7.66666667 352.688897,5 344.688897,5 C336.688897,5 328.688897,7.66666667 320.688897,13" id="Path" />
               <line x1="216.688897" y1="36" x2="1" y2="79.3393577" id="Path" transform="translate(108.844448, 57.669679) rotate(1.361411) translate(-108.844448, -57.669679) " />
            </g>
         </g>
      </g>
      <g id="notion-avatar-hair">
         <title>Hairstyle/ 6</title>
         <g id="Hairstyle/-6" stroke="none" stroke-width="1" fill="none" fill-rule="evenodd" stroke-linecap="round" stroke-linejoin="round">
            <path d="M279,719 L312,727 L361,805 C345.104968,795.793015 330.104968,783.793015 316,769 C301.895032,754.206985 289.561699,737.540318 279,719 Z M343,303 C367,222.333333 442.666667,202.333333 570,243 C761,304 782,471 782,496 C782,512.666667 778.333333,533.666667 771,559 L769.377742,556.788495 C742.968282,520.931086 720.842368,498.001587 703,488 C652.173973,459.509334 588.817434,464 549,464 C509.182566,464 428.104379,430.95793 412,428 C409.688334,427.575411 401.590927,431.429106 429,448 L430.116018,448.665115 C436.887544,452.645909 447.182205,457.757538 461,464 C447.596463,464.038164 432.312171,461.806007 415.147123,457.303529 L412.503541,456.598811 C395.711977,452.076418 384.642719,448.384272 379.295767,445.522372 L380.06813,448.7074 C388.26572,482.685415 392.364515,505.362636 392.364515,516.739062 C392.364515,528.232771 383.924355,572.72458 367.044035,650.214489 L366,655 C350.666667,619.666667 338.333333,596 329,584 C315,566 300.202254,555.429256 288,559 L287.245493,559.229979 C278.745889,561.917334 258.53666,571.367129 244,589 C238.749387,595.368958 233.08272,607.368958 227,625 L226.065502,623.594497 C212.50066,603.100798 205.145493,587.902633 204,578 C200.118123,544.441696 214.597053,517.355586 214,510 C210.524124,467.177849 188,403 244,358 L246.2348,356.214 C282.6516,327.271333 314.906667,309.533333 343,303 Z" id="Shape" stroke="#000000" stroke-width="12" fill="#000000" />
         </g>
      </g>
      <g id="notion-avatar-accessories">
         <title>Accessories/ 0</title>
         <g id="Accessories/-0" stroke="none" stroke-width="1" fill="none" fill-rule="evenodd" />
      </g>
      <g id="notion-avatar-details">
         <title>Details/ 0</title>
         <g id="Details/-0" stroke="none" stroke-width="1" fill="none" fill-rule="evenodd" />
      </g>
      <g id="notion-avatar-beard">
         <title>Beard/ 0</title>
         <g id="Beard/-0" stroke="none" stroke-width="1" fill="none" fill-rule="evenodd" />
      </g>
   </g>
</svg>